<?xml version="1.0" encoding="utf-8"?>
<!-- Generator: Adobe Illustrator 27.0.1, SVG Export Plug-In . SVG Version: 6.00 Build 0)  -->
<svg version="1.1" id="Layer_1" xmlns="http://www.w3.org/2000/svg" xmlns:xlink="http://www.w3.org/1999/xlink" x="0px" y="0px"
	 viewBox="0 0 880 72.2" style="enable-background:new 0 0 880 72.2;" xml:space="preserve">
<style type="text/css">
	.st0{fill:#FFFFFF;}
	.st1{fill:#00A3DE;}
	.st2{fill:#0072BC;}
	.st3{fill:#231F20;}
	.st4{fill:#DEDEE6;}
</style>
<g>
	<g>
		<circle class="st0" cx="134.7" cy="30.5" r="30.5"/>
		<path class="st1" d="M158.1,44.7h3.5c-5.1,9.7-15.3,16.3-27,16.3c-16.8,0-30.5-13.7-30.5-30.5S117.8,0,134.7,0
			s30.5,13.6,30.5,30.5c0,4.5-1,8.8-2.7,12.6l-0.9-12.9h-7.9l-0.9,3.3h1.2l-3.9,6.2l-0.6-9.5h-8l-0.9,3.3h1.2l-5.2,8h-4.3
			c-0.4,0-2.2-0.4-2.2-2.6s2.1-5.3,4.1-5.3h0.9c-0.1,0.5-0.5,1.6-0.5,1.6h3.8l1.4-5h-5.9c-3.7,0-6.7,2.6-7.6,5.3l1.5-5.3h-5.3
			l-0.9,3.3h1.4l-1.4,4.8l-3.5-8.1h-4.9l-0.9,3.3h1.4l-3.1,11.1h3.9c0,0,1.5-5.5,1.9-6.9c0.6,1.3,2.9,6.9,2.9,6.9h4.4l2-7.1
			c-0.2,1-0.2,2.2,0,3.2c0.4,2.3,2.6,3.8,5.1,3.8h8l1.4-2.1h5.6l0.1,2.1h5l1.3-2.1h5.8L158.1,44.7L158.1,44.7z M154.7,39.1h3.2
			l-0.2-4.6L154.7,39.1L154.7,39.1z M142.4,39.2h3.2l-0.2-4.6L142.4,39.2z"/>
		<g>
			<path class="st1" d="M165.2,44.7c-1.4,0-2.5,1.1-2.5,2.5s1.1,2.5,2.5,2.5s2.5-1.1,2.5-2.5S166.6,44.7,165.2,44.7z M167.1,47.2
				c0,1.1-0.9,1.9-1.9,1.9s-1.9-0.9-1.9-1.9s0.9-1.9,1.9-1.9S167.1,46.1,167.1,47.2z"/>
			<path class="st1" d="M166.4,46.7c0-0.5-0.5-0.9-1-0.9h-1.2v2.9h0.5v-1.1h0.4l0.7,1.1h0.7l-0.7-1.1
				C166,47.5,166.4,47.2,166.4,46.7L166.4,46.7z M165.8,46.7c0,0.2-0.2,0.4-0.4,0.4h-0.6v-0.8h0.6C165.6,46.3,165.8,46.4,165.8,46.7
				z"/>
		</g>
	</g>
	<polygon class="st2" points="88.9,29.2 80.9,29.2 83.2,17.9 84.1,13.3 84.4,11.9 44.2,11.9 44.7,9.2 45.7,4.5 45.9,3.2 11.6,3.2 
		10.4,9.2 38.7,9.2 36.4,20.6 8.1,20.6 6.9,26.7 41.2,26.7 41.3,26.3 42.4,20.6 43,17.9 77.2,17.9 71.4,46.4 37.3,46.4 37.8,43.7 
		38.8,39 39,37.7 4.7,37.7 3.5,43.7 31.8,43.7 29.5,55.2 1.2,55.2 0,61.2 34.3,61.2 34.4,60.9 35.5,55.2 36.1,52.4 76.3,52.4 
		76.7,50.1 77.5,46.4 79.7,35.2 87.6,35.2 	"/>
	<polygon class="st2" points="791.1,34.7 799.1,34.7 796.8,45.9 795.9,50.6 795.6,51.9 835.8,51.9 835.3,54.6 834.3,59.4 
		834.1,60.7 868.4,60.7 869.6,54.6 841.3,54.6 843.6,43.2 871.9,43.2 873.1,37.2 838.8,37.2 838.7,37.5 837.6,43.2 837,45.9 
		802.8,45.9 808.5,17.4 842.7,17.4 842.2,20.1 841.2,24.9 841,26.2 875.3,26.2 876.5,20.1 848.2,20.1 850.5,8.7 878.8,8.7 880,2.7 
		845.7,2.7 845.6,3 844.5,8.7 843.9,11.4 803.7,11.4 803.3,13.7 802.5,17.4 800.3,28.6 792.3,28.6 	"/>
	<g>
		<g>
			<path class="st3" d="M204.3,41.8l12.1-36.7h16.4l-8.7,49.6c-0.1,0.8-0.5,1.5-1,1.9s-1.3,0.6-2.2,0.6h-7.5l6.5-37.3l-11.5,34.7
				c-0.3,0.9-0.7,1.5-1.3,2c-0.6,0.4-1.3,0.6-2.2,0.6h-9.6l1-37.3l-6.1,34.8c-0.1,0.8-0.5,1.5-1,1.9s-1.3,0.6-2.2,0.6h-7.5l9.2-52.1
				h14.1c0.8,0,1.5,0.2,1.9,0.6s0.6,1,0.6,1.9L204.3,41.8L204.3,41.8z"/>
			<path class="st3" d="M244.8,5.1h14.1c0.9,0,1.7,0.2,2.2,0.8c0.5,0.5,0.8,1.2,0.8,2.2l-1.2,49.2H249l0.6-9.3h-7.3l-1.9,6.8
				c-0.2,0.8-0.6,1.5-1.1,1.9s-1.2,0.6-2,0.6h-9.2L244.8,5.1L244.8,5.1z M251.7,14.1l-6.9,24.7h5.4L251.7,14.1L251.7,14.1z"/>
			<path class="st3" d="M300,32.8l-5.1,3.9l3.5,18c0.1,0.8,0,1.4-0.3,1.9c-0.4,0.5-0.9,0.7-1.7,0.7h-9.5l-3.4-18.8h-3.8l-2.9,16.3
				c-0.1,0.8-0.5,1.5-1,1.9s-1.3,0.6-2.2,0.6H265l9-52.2h24.4l5.4,5.6L300,32.8L300,32.8z M283.8,14.8l-2.5,13.9h6.5
				c0.5,0,0.8-0.1,1.1-0.4c0.3-0.2,0.5-0.6,0.6-1l1.9-11.2c0.1-0.5,0-0.8-0.1-1c-0.2-0.2-0.5-0.3-0.9-0.3L283.8,14.8L283.8,14.8z"/>
			<path class="st3" d="M334.9,40.6l-1.9,11l-7.4,5.6h-16.9l-5.4-5.6l7.2-41l7.4-5.6h16.9l5.4,5.6l-1.9,10.6c-0.1,0.8-0.5,1.5-1,1.9
				s-1.3,0.6-2.2,0.6h-8.6l1.3-7.8c0.1-0.5,0-0.8-0.1-1s-0.5-0.3-0.9-0.3h-4.2c-0.5,0-0.8,0.1-1.1,0.4s-0.5,0.6-0.6,1l-5.3,30
				c-0.1,0.5,0,0.8,0.1,1c0.2,0.2,0.5,0.3,0.9,0.3h4.2c0.5,0,0.8-0.1,1.1-0.4c0.3-0.2,0.5-0.6,0.6-1l1.4-8h8.9
				c0.8,0,1.4,0.2,1.8,0.6S335,39.8,334.9,40.6L334.9,40.6z"/>
			<path class="st3" d="M357.1,57.2l3.6-20.8h-7.9l-3.2,18.3c-0.1,0.8-0.5,1.5-1,1.9s-1.3,0.6-2.2,0.6h-8.6L347,5.1h11.4l-3.7,21.2
				h7.9l3.7-21.2h11.4L369,54.7c-0.1,0.8-0.5,1.5-1,1.9s-1.3,0.6-2.2,0.6H357.1L357.1,57.2z"/>
			<path class="st3" d="M685.3,57.2h-20.4L674,5.1h11.4L678,47.5h11.7l-1.2,7.2c-0.2,0.8-0.5,1.5-1,1.9
				C686.9,57,686.2,57.2,685.3,57.2L685.3,57.2z"/>
			<path class="st3" d="M701.3,57.2h-8.6l9.2-52.1h11.4l-8.7,49.6c-0.2,0.8-0.5,1.5-1,1.9C702.9,57,702.2,57.2,701.3,57.2
				L701.3,57.2z"/>
			<path class="st3" d="M729.9,57.2H716l1.4-52.1h9c0.8,0,1.5,0.2,1.9,0.6s0.6,1,0.6,1.9l-2.2,38.6L738.5,5h11.4l-16.1,49.5
				c-0.3,0.8-0.8,1.5-1.4,1.9C731.8,57,730.9,57.2,729.9,57.2L729.9,57.2z"/>
			<path class="st3" d="M775.3,14.8h-11.5L761.9,26h12l-2.3,7.1c-0.3,0.8-0.7,1.5-1.2,1.9s-1.2,0.6-2,0.6h-8.2l-2.1,11.9h14.6
				l-1.3,7.2c-0.2,0.8-0.5,1.5-1,1.9s-1.3,0.6-2.2,0.6H745l9.2-52.1h25.5l-1.2,7.1c-0.2,0.8-0.5,1.5-1,1.9
				C776.9,14.6,776.2,14.8,775.3,14.8L775.3,14.8z"/>
			<path class="st3" d="M504.3,51.7l4-22.5l3.3-18.5l-5.4-5.6h-24.5l-9.2,52.2H497l3.7-2.8L504.3,51.7L504.3,51.7z M499.2,16.1
				l-5.3,30c0,0.2-0.1,0.4-0.2,0.6c-0.3,0.5-0.7,0.8-1.5,0.8h-6.6l5.8-32.8h6.6c0.5,0,0.8,0.2,1,0.5
				C499.2,15.5,499.3,15.8,499.2,16.1L499.2,16.1z"/>
			<path class="st3" d="M525.9,29.2l4.8,25.6c0.2,0.8,0.5,1.5,1,1.9s1.1,0.7,1.9,0.7h8.3l9.2-52.2h-10.7l-4.9,28.2l-5.4-28.2h-10.7
				l-9.2,52.2h7.9c1.7,0,2.9-0.8,3.2-2.5L525.9,29.2L525.9,29.2z"/>
			<path class="st3" d="M610.6,51.9l0.3-0.2l3-17.1l0.5-3L609,26h-12.7l1.7-9.8c0.2-0.9,0.7-1.4,1.6-1.4h4.5c0.7,0,1,0.3,1.1,0.8
				c0,0.2,0,0.4,0,0.6l-0.4,2.5l-0.4,2.5h8.7c1.7,0,2.9-0.8,3.2-2.5l1.3-7.8L614.2,7l-1.8-1.9h-17.3l-3.2,2.4l-4.2,3.2l-3.4,19.5
				l5.4,5.5h12.7l-1.9,10.5c0,0.2-0.1,0.4-0.2,0.6c-0.3,0.5-0.7,0.8-1.5,0.8h-5.3c-0.9,0-1.2-0.5-1-1.3l0.6-3.4
				c0.1-0.4,0.1-0.8,0-1.1c-0.1-1-0.8-1.4-2.1-1.4h-8.9l-2,11.4l5.4,5.6h18l3.7-2.8L610.6,51.9L610.6,51.9L610.6,51.9z"/>
			<path class="st3" d="M648.7,5.1h-17.3l-3.2,2.4l-4.2,3.2l-3.4,19.5l5.4,5.5h12.7l-1.9,10.5c0,0.2-0.1,0.4-0.2,0.6
				c-0.3,0.5-0.7,0.8-1.5,0.8h-5.3c-0.7,0-1-0.2-1.1-0.8c0-0.2,0-0.4,0-0.6l0.6-3.4c0.2-1.3-0.1-2.1-1-2.4c-0.3-0.1-0.7-0.2-1.1-0.2
				h-8.9l-2,11.4l5.4,5.6h18l7.4-5.6l3.6-20.1l-5.4-5.6h-12.7l1.7-9.8c0.1-0.4,0.2-0.7,0.4-0.9c0,0,0-0.1,0.1-0.1
				c0.3-0.2,0.6-0.4,1.1-0.4h4.5c0.5,0,0.8,0.2,1,0.5c0.1,0.2,0.1,0.5,0.1,0.8l-0.4,2.5l-0.4,2.5h8.7c1.7,0,2.9-0.8,3.2-2.5l1.3-7.8
				l-0.2-0.2L648.7,5.1L648.7,5.1z"/>
			<path class="st3" d="M468.3,57.3l0.2-9.9l1-39.3l0,0c0-1.4-0.6-2.3-1.7-2.7c-0.4-0.1-0.8-0.2-1.2-0.2h-14.1l-8.5,26l-8.4,26.1
				h9.2h0.1c0.8,0,1.4-0.2,1.9-0.6c0.5-0.4,0.9-1,1.1-1.8l1.9-6.9h7.3l-0.6,9.3L468.3,57.3L468.3,57.3z M452.5,38.8l6.9-24.7
				l-1.6,24.7H452.5L452.5,38.8z"/>
			<path class="st3" d="M575.3,54.9L575.3,54.9c0-0.1,0-0.1,0.1-0.2l1.3-7.2h-14.6l1-6l1-6h8.2c0.9,0,1.5-0.2,2-0.6
				c0.5-0.4,0.9-1.1,1.2-1.9l2.3-7.2l0,0h-12l1.6-9.2l0.3-1.9h11.5c0.8,0,1.5-0.2,2-0.6c0.6-0.4,1-1.1,1.2-2l0.9-5.4l0.3-1.8H558
				L553.4,31l-4.6,26.1h23.3c0.6,0,1.1-0.1,1.5-0.3C574.5,56.6,575.1,56,575.3,54.9L575.3,54.9z"/>
			<path class="st3" d="M428.6,57.3c0.4,0,0.8,0,1.2-0.2c0.7-0.2,1.3-0.6,1.6-1.3c0.2-0.3,0.3-0.7,0.4-1.1l8.7-49.6h-16.4L418,23.5
				l-6,18.4l0.9-34.2l0,0c0-0.8-0.2-1.5-0.6-1.9s-1-0.6-1.9-0.6h-14.1l-9.2,52.2h7.5c0.6,0,1.1-0.1,1.5-0.3c0.9-0.4,1.5-1.1,1.7-2.2
				l6.1-34.8l-1,37.3h9.6c0.5,0,0.9,0,1.2-0.2c1.1-0.3,1.8-1.1,2.2-2.5L427.4,20l-6.6,37.3H428.6L428.6,57.3z"/>
			<path class="st3" d="M655.6,13c0-0.9,0.7-1.6,1.6-1.6s1.6,0.7,1.6,1.6s-0.7,1.7-1.6,1.7S655.6,14,655.6,13z M657.2,15
				c1.1,0,2-0.8,2-2s-0.9-2-2-2s-2,0.8-2,2S656.1,15,657.2,15z M656.8,13.2h0.4l0.6,1h0.4l-0.7-1c0.3,0,0.6-0.2,0.6-0.6
				c0-0.5-0.3-0.6-0.8-0.6h-0.9v2.3h0.3v-1.1H656.8z M656.8,12.9v-0.7h0.5c0.2,0,0.5,0,0.5,0.3c0,0.4-0.3,0.4-0.6,0.4H656.8z"/>
		</g>
		<g>
			<g>
				<polygon class="st4" points="619.1,62.9 610.1,72.2 620.7,72.2 620.7,72.2 624.7,72.2 633.6,62.9 621.4,62.9 				"/>
				<polygon class="st4" points="534,62.9 529.8,62.9 520.6,72.2 522.9,72.2 530.6,72.2 539.8,62.9 				"/>
				<path class="st4" d="M403,62.9h-4.1l-9.2,9.2h12.5l9.1-9.2L403,62.9L403,62.9z"/>
				<path class="st4" d="M435.6,62.9h-2l-9.2,9.2h10.4l9.1-9.2L435.6,62.9L435.6,62.9z"/>
				<path class="st4" d="M421.1,62.9h-3.7l-9.2,9.2h10.1l9.1-9.2C427.4,62.9,421.1,62.9,421.1,62.9z"/>
				<polygon class="st4" points="472.6,62.9 470.5,62.9 461.3,72.2 478.3,72.2 483.5,72.2 492.6,62.9 473.9,62.9 				"/>
				<polygon class="st4" points="456.6,62.9 452.1,62.9 442.8,72.2 449.7,72.2 449.7,72.2 453.9,72.2 456.1,72.2 465.2,62.9 				"/>
				<path class="st4" d="M510.3,62.9h-3.4l-9.2,9.2h12l8.9-9.2c-0.1,0-0.3,0-0.4,0L510.3,62.9L510.3,62.9z"/>
				<polygon class="st4" points="546.7,62.9 545.8,62.9 536.8,72.1 560.7,72.1 569.6,62.9 548.9,62.9 				"/>
				<polygon class="st4" points="583.2,62.9 574.2,72.2 584.8,72.2 584.8,72.2 588.8,72.2 597.7,62.9 585.5,62.9 				"/>
				<polygon class="st4" points="387.1,62.9 382.5,62.9 373.3,72.2 376,72.2 383.8,72.2 392.9,62.9 				"/>
			</g>
			<path class="st4" d="M196.9,62.9h-4.1l-9.2,9.2h12.5l9.1-9.2L196.9,62.9L196.9,62.9z"/>
			<path class="st4" d="M229.5,62.9h-2l-9.2,9.2h10.4l9.1-9.2L229.5,62.9L229.5,62.9z"/>
			<path class="st4" d="M265.6,62.9h-2l-9.2,9.2h10.4l9.1-9.2L265.6,62.9L265.6,62.9z"/>
			<path class="st4" d="M287.8,62.9h-2l-9.2,9.2h11.9l9.1-9.2C297.6,62.9,287.8,62.9,287.8,62.9z"/>
			<path class="st4" d="M337.4,62.9h-2l-9.2,9.2h11.6l9.1-9.2C346.9,62.9,337.4,62.9,337.4,62.9z"/>
			<path class="st4" d="M357.1,62.9h-2l-9.2,9.2h11.6l9.1-9.2C366.6,62.9,357.1,62.9,357.1,62.9z"/>
			<path class="st4" d="M308.9,62.9h-2l-9.2,9.2H315l9.1-9.2C324.1,62.9,308.9,62.9,308.9,62.9z"/>
			<path class="st4" d="M214.9,62.9h-3.7l-9.2,9.2h10.1l9.1-9.2C221.2,62.9,214.9,62.9,214.9,62.9z"/>
			<polygon class="st4" points="250.5,62.9 245.9,62.9 236.7,72.2 243.5,72.2 243.5,72.2 247.8,72.2 249.9,72.2 259.1,62.9 			"/>
			<polygon class="st4" points="181,62.9 176.4,62.9 167.2,72.2 169.9,72.2 177.7,72.2 186.8,62.9 			"/>
			<path class="st4" d="M664.5,62.9h-2l-9.2,9.2H676l9.1-9.2C685.1,62.9,664.5,62.9,664.5,62.9z"/>
			<path class="st4" d="M692.6,62.9h-2l-9.2,9.2h11.3l9.1-9.2C701.8,62.9,692.6,62.9,692.6,62.9z"/>
			<path class="st4" d="M715.6,62.9h-2l-9.2,9.2h17l9.1-9.2C730.5,62.9,715.6,62.9,715.6,62.9z"/>
			<path class="st4" d="M745,62.9h-2l-9.2,9.2H760l9.1-9.2C769.1,62.9,745,62.9,745,62.9z"/>
		</g>
	</g>
</g>
</svg>
