<?xml version="1.0" encoding="UTF-8"?>
<!DOCTYPE svg PUBLIC "-//W3C//DTD SVG 1.1//EN" "http://www.w3.org/Graphics/SVG/1.1/DTD/svg11.dtd">
<!-- Creator: CorelDRAW 2019 (64-Bit) -->
<svg xmlns="http://www.w3.org/2000/svg" xml:space="preserve" width="180.824mm" height="240.655mm" version="1.1" style="shape-rendering:geometricPrecision; text-rendering:geometricPrecision; image-rendering:optimizeQuality; fill-rule:evenodd; clip-rule:evenodd"
viewBox="0 0 181.0523 240.9595"
 xmlns:xlink="http://www.w3.org/1999/xlink"
 xmlns:xodm="http://www.corel.com/coreldraw/odm/2003">
 <defs>
  <style type="text/css">
   <![CDATA[
    .fil0 {fill:#1C2552}
    .fil2 {fill:#B50D0F}
    .fil1 {fill:#FEFEFE}
   ]]>
  </style>
 </defs>
 <g id="Layer_x0020_1">
  <metadata id="CorelCorpID_0Corel-Layer"/>
  <g id="_701607936">
   <path class="fil0" d="M181.0492 23.4419c0,0 -19.3053,15.0251 -46.5011,8.2303 -31.7067,-7.9243 -44.0242,-31.6722 -44.0242,-31.6722 0,0 -12.316,23.7479 -44.0239,31.6722 -27.1944,6.7958 -46.5001,-8.2303 -46.5001,-8.2303l0 157.6377c0.0041,5.358 2.243,28.1088 44.6819,34.242 16.7553,2.425 29.2721,7.8105 38.2642,16.4644 3.2391,3.1069 5.7006,6.2707 7.5793,9.1735 1.8845,-2.9017 4.3351,-6.0666 7.5703,-9.1735 9.003,-8.6539 21.5191,-14.0394 38.2745,-16.4644 42.4349,-6.1332 44.674,-28.8841 44.6822,-34.242l0 -157.6377 -0.0031 0z"/>
   <path class="fil1" d="M90.5239 224.9116c0,0 12.3165,-15.1812 44.3203,-20.1173 36.6593,-5.6571 35.5707,-22.8707 35.5728,-23.7426l0 -82.5582 -159.7848 0 0 82.5571c0,0.8679 -1.0827,18.0839 35.5712,23.7422 32.0028,4.9392 44.3205,20.1188 44.3205,20.1188z"/>
   <polygon class="fil2" points="53.2789,158.8318 53.2733,119.5681 48.3433,116.8069 48.3433,106.6262 70.7818,106.6262 70.7818,116.8069 66.0897,119.5681 66.0897,199.6571 54.0968,196.0623 36.7572,144.9031 36.7548,178.6302 42.2604,182.8593 42.2604,193.2531 18.1877,187.1349 18.1877,178.2746 23.696,176.1203 23.696,119.6012 18.0525,116.8069 18.0525,106.6262 36.2703,106.6262 "/>
   <polygon class="fil2" points="94.5813,194.7392 99.3872,200.496 99.3872,210.6754 75.5412,201.7666 75.5412,193.1244 80.8052,190.969 80.8052,119.5696 75.5734,116.9233 75.5734,106.6262 116.9773,106.6262 116.9773,127.3459 107.8762,127.3459 105.1187,118.8394 94.5813,118.8394 94.5813,142.7969 102.4899,142.7969 105.6022,138.2473 111.9477,138.2473 111.9477,159.5674 105.6022,159.5674 102.6063,155.2561 94.5824,155.2561 94.5824,194.7392 "/>
   <polygon class="fil2" points="120.9046,198.3433 120.9046,188.163 126.8272,183.3011 126.8272,119.5681 121.7699,116.9218 121.7699,106.6262 145.6458,106.6262 145.6458,116.9233 140.9542,119.5696 140.9542,179.3621 151.2136,176.5902 153.1815,160.9196 162.9967,160.9196 162.9967,187.0986 "/>
   <polygon class="fil1" points="14.7857,81.6048 7.5595,76.1677 16.3907,76.1677 19.3071,67.8011 22.2231,76.1677 31.0543,76.1677 23.8282,81.6058 26.4868,90.098 19.3071,85.0537 12.1274,90.098 "/>
   <polygon class="fil1" points="46.1388,81.6048 38.9128,76.1677 47.7439,76.1677 50.6589,67.8011 53.5751,76.1677 62.4075,76.1677 55.1816,81.6058 57.8399,90.098 50.6589,85.0537 43.4792,90.098 "/>
   <polygon class="fil1" points="14.7857,53.309 7.5595,47.8719 16.3907,47.8719 19.3071,39.5043 22.2231,47.8719 31.0543,47.8719 23.8282,53.309 26.4868,61.8017 19.3071,56.756 12.1274,61.8017 "/>
   <polygon class="fil1" points="46.1388,53.309 38.9128,47.8719 47.7439,47.8719 50.6589,39.5043 53.5751,47.8719 62.4075,47.8719 55.1816,53.309 57.8399,61.8017 50.6589,56.756 43.4792,61.8017 "/>
   <polygon class="fil1" points="168.9238,90.098 161.7424,85.0527 154.563,90.098 157.2197,81.6048 149.9954,76.1661 158.8262,76.1661 161.7424,67.7995 164.6575,76.1661 173.4883,76.1661 166.2634,81.6048 "/>
   <polygon class="fil1" points="137.5701,90.098 130.3894,85.0527 123.2085,90.098 125.8676,81.6048 118.6407,76.1661 127.473,76.1661 130.3894,67.7995 133.3059,76.1661 142.1368,76.1661 134.9093,81.6048 "/>
   <polygon class="fil1" points="168.9238,61.8028 161.7424,56.7575 154.563,61.8028 157.2197,53.309 149.9954,47.8709 158.8262,47.8709 161.7424,39.5043 164.6575,47.8709 173.4883,47.8709 166.2634,53.309 "/>
   <polygon class="fil1" points="137.5701,61.8028 130.3894,56.7575 123.2085,61.8028 125.8676,53.309 118.6407,47.8709 127.473,47.8709 130.3894,39.5043 133.3059,47.8709 142.1368,47.8709 134.9093,53.309 "/>
   <path class="fil1" d="M97.3967 47.1483c-3.217,-2.6478 -6.8223,-4.3624 -10.6543,-5.179 0.9274,-0.8772 1.878,-1.6287 2.7126,-2.3249 4.7871,1.1511 8.0105,3.2962 10.2056,5.1197 -0.7845,0.8032 -1.5437,1.5868 -2.2639,2.3843zm-4.6456 5.5906l0 0c0.6486,-0.8535 1.3349,-1.7517 2.0732,-2.633 -3.6044,-2.9746 -7.7393,-4.6736 -10.964,-5.2467 -0.7235,0.8202 -1.4818,1.7083 -2.1275,2.5419 4.225,0.8441 7.9538,2.7643 11.0183,5.3378zm-4.1733 5.8593l0 0c-3.3054,-2.7549 -7.1613,-4.4436 -10.9443,-5.1646 0,0 1.1605,-1.8933 1.8204,-2.8764 4.6275,0.9155 8.3838,3.079 11.0104,5.3021 -0.6745,0.9645 -1.3148,1.8876 -1.8865,2.739zm21.8523 -27.9888l0 0c0,0 -3.7431,1.9507 -8.9662,7.0873 1.179,0.6653 2.5054,1.5988 3.2646,2.2284 -0.7886,0.6997 -1.5955,1.4538 -2.3452,2.1646 -3.3978,-2.8015 -6.937,-4.2239 -9.6789,-4.8934 0.9107,-0.6523 1.8768,-1.2937 2.8315,-1.9154 1.4742,0.3753 2.8982,0.9552 2.8982,0.9552 5.9,-4.4912 11.0022,-6.4284 11.0022,-6.4284 0,0 -0.5903,-0.2895 -2.1682,-0.2698 -23.1933,0.3003 -44.5628,17.6171 -40.5281,47.2459 0.431,3.1427 1.6524,8.8578 3.2045,11.364 0.5175,-4.932 2.3684,-15.8427 7.8673,-27.5333 -1.9102,-0.6854 -3.497,-0.9671 -3.497,-0.9671 0.5614,-1.178 1.3419,-2.6795 1.3419,-2.6795 4.0686,0.767 7.6641,2.4691 10.7778,4.9351 -0.7479,1.2069 -1.2534,1.9956 -1.6096,2.6164 -1.0916,-0.859 -2.1937,-1.6012 -3.4097,-2.2748 -6.1793,10.8037 -9.048,21.0007 -10.2109,26.3529 0.0636,0.3298 0.737,0.5003 1.2781,0.43 25.4147,-3.2895 37.3126,-16.2525 40.9329,-30.3011 2.3822,-9.216 1.6026,-18.8531 -1.5863,-26.7116 -0.224,-0.5531 -0.6585,-1.47 -1.3988,-1.4055z"/>
  </g>
 </g>
</svg>
