<?xml version="1.0" encoding="UTF-8"?>
<!DOCTYPE svg PUBLIC "-//W3C//DTD SVG 1.1//EN" "http://www.w3.org/Graphics/SVG/1.1/DTD/svg11.dtd">
<!-- Creator: CorelDRAW 2019 (64-Bit) -->
<svg xmlns="http://www.w3.org/2000/svg" xml:space="preserve" width="152.228mm" height="194.595mm" version="1.1" style="shape-rendering:geometricPrecision; text-rendering:geometricPrecision; image-rendering:optimizeQuality; fill-rule:evenodd; clip-rule:evenodd"
viewBox="0 0 152.0442 194.3605"
 xmlns:xlink="http://www.w3.org/1999/xlink"
 xmlns:xodm="http://www.corel.com/coreldraw/odm/2003">
 <defs>
  <style type="text/css">
   <![CDATA[
    .fil2 {fill:#CB1400}
    .fil0 {fill:#13275F}
    .fil1 {fill:white}
   ]]>
  </style>
 </defs>
 <g id="Layer_x0020_1">
  <metadata id="CorelCorpID_0Corel-Layer"/>
  <g id="_943120640">
   <path class="fil0" d="M-0 170.0839c0,13.4043 10.869,24.2703 24.2736,24.2703l93.1812 0c13.4045,0 24.2668,-10.866 24.2668,-24.2703l0 -146.1428c0,-13.4041 -10.8623,-24.2695 -24.2668,-23.9333l-93.1812 0c-13.4046,-0.3362 -24.2736,10.5292 -24.2736,23.9333l0 146.1428z"/>
   <path class="fil1" d="M24.2736 5.2108c-10.3476,0 -18.7307,8.39 -18.7307,18.7302l0 146.1428c0,10.3443 8.3831,18.7274 18.7307,18.7274l93.1812 0c10.3408,0 18.7274,-8.3831 18.7274,-18.7274l0 -146.1428c0,-10.3402 -8.3866,-18.7302 -18.7274,-18.7302l-93.1812 0z"/>
   <path class="fil0" d="M24.1602 8.0574c-8.7725,0 -15.8836,7.1104 -15.8836,15.8836l0 146.1428c0,8.7669 7.1111,15.8839 15.8836,15.8839l93.1814 0c8.7701,0 15.884,-7.117 15.884,-15.8839l0 -146.1428c0,-8.7732 -7.1139,-15.8836 -15.884,-15.8836l-93.1814 0z"/>
   <path class="fil0" d="M146.7844 188.8835c0.8166,0 2.0071,0.135 2.0071,-1.0307 0,-0.8984 -0.7356,-1.0024 -1.4389,-1.0024l-1.6399 0 0 2.033 1.0717 0zm2.6981 3.1988l0 0 -0.8409 0 -1.6412 -2.6425 -1.2877 0 0 2.6425 -0.7045 0 0 -5.7375 2.505 0c1.5212,0 2.0355,0.5716 2.0355,1.5174 0,1.1283 -0.7857,1.549 -1.8005,1.5776l1.7343 2.6425zm1.7479 -2.8751l0 0c0,2.5266 -1.8127,4.4779 -4.3084,4.4779 -2.5131,0 -4.342,-1.9513 -4.342,-4.4779 0,-2.4948 1.8289,-4.4493 4.342,-4.4493 2.4957,0 4.3084,1.9545 4.3084,4.4493zm-9.4616 0l0 0c0,-2.8185 2.3026,-5.1246 5.1532,-5.1246 2.8318,0 5.1222,2.3061 5.1222,5.1246 0,2.8504 -2.2904,5.1533 -5.1222,5.1533 -2.8506,0 -5.1532,-2.3029 -5.1532,-5.1533z"/>
   <path class="fil1" d="M23.7769 43.6889c0,0.5885 -0.3516,0.9368 -0.9863,0.9368l-1.5492 0 0 2.0678 10.0013 0 0 -2.0678 -1.6999 0c-0.6348,0 -0.9896,-0.3483 -0.9896,-0.9368l0 -3.7063 2.7901 0c4.6725,0 7.133,-1.2202 7.133,-4.4339 0,-3.2177 -2.4605,-4.415 -6.6268,-4.415l-10.6334 0 0 2.0678 1.5745 0c0.6347,0 0.9863,0.3482 0.9863,0.9367l0 9.5507zm4.7762 -10.4874l0 0 2.5861 0c1.423,0 2.5639,0.9111 2.5639,2.3687 0,1.455 -1.191,2.3445 -2.9693,2.3445l-2.1807 0 0 -4.7132z"/>
   <path class="fil1" d="M58.6833 40.5441l-1.169 0c-0.6342,0 -0.9896,0.3523 -0.9896,0.9394l0 5.3949 -2.209 0 -0.559 -1.1459c-1.4709,1.0554 -3.3527,1.4294 -4.9992,1.4294 -5.2823,0 -8.9869,-2.7684 -8.9869,-8.0255 0,-5.3031 3.5821,-8.4736 8.9869,-8.4736 1.4736,0 3.3021,0.4495 4.5685,1.5737l0.5092 -1.3132 2.2841 0 0.0063 5.4772 -2.36 0c-0.0753,-2.3229 -1.5839,-3.5511 -4.1445,-3.5511 -2.9441,0 -4.3424,2.0165 -4.3424,6.0765 0,4.06 1.3982,6.0077 4.3424,6.0077 0.9647,0 2.1273,-0.351 2.1273,-1.4577l0 -1.9922c0,-0.5871 -0.3522,-0.9394 -0.9864,-0.9394l-1.3202 0 0 -2.0638 9.2415 0 0 2.0638z"/>
   <path class="fil1" d="M65.3798 40.4563l2.3346 -5.2248 2.133 5.2248 -4.4676 0zm12.6496 4.4555l0 0c-1.7028,-0.2862 -1.753,-0.6601 -2.3939,-2.0678l-5.0087 -11.5443 -3.8274 0 -4.7883 10.6642c-0.7387,1.5616 -1.2069,2.7751 -3.3812,2.9734l0 1.8005 7.6292 0 0 -1.8005 -0.251 -0.0256c-0.591,-0.0851 -1.9456,-0.0851 -1.9456,-0.8571 0,-0.2836 0.1698,-0.7262 0.2927,-1.0083l0.2984 -0.7397 6.03 0 0.3389 0.7397c0.0943,0.3036 0.3426,0.8759 0.3426,1.1864 0,0.679 -1.5273,0.6384 -2.0486,0.7046l0 1.8005 8.9834 0 0 -1.8005 -0.2706 -0.0256z"/>
   <path class="fil1" d="M98.2212 82.0152c-0.1286,-0.4525 -0.9928,-2.6837 -1.395,-3.8621 -0.0534,-0.1571 7.0576,-4.8073 7.0576,-4.8073 0,0 0.0943,0.38 0.1476,0.8389 0,0 -4.8015,7.1767 -5.8102,7.8306zm23.5855 -29.028l0 0c2.4069,-2.4417 2.4664,-8.3143 2.4664,-8.3143 -2.4258,-4.411 -7.5068,-5.7337 -7.5068,-5.7337 -1.1339,-0.8044 -2.045,-0.0634 -2.4132,0.3388l-0.0183 0 -40.7697 -24.8863c-2.9725,-1.5387 -7.0728,3.7198 -8.1037,5.6567 -0.4149,0.7005 0.9144,1.7344 1.8196,2.2864 3.7011,2.4228 5.4706,-3.7914 6.8277,-5.9888l39.4343 24.8836c-0.0786,0.0284 0.1322,2.0543 0.2297,2.1421 -0.0221,3.2366 2.5704,5.9199 1.0364,10.6048 -0.4113,6.5614 -7.5282,7.8748 -11.3966,11.9536 -3.5632,3.4908 -10.5827,3.0511 -13.5237,5.9167 -0.0254,0.0285 -0.0785,0.0817 -0.0785,0.0817 0,0 -0.0223,-0.1039 -0.0287,-0.1224 -2.5354,-6.6395 -4.0406,-7.0102 -4.8199,-9.6779 -3.1077,-1.1721 -6.7713,-1.452 -9.7407,0.1413 -2.8472,1.8601 -4.2795,5.3888 -3.7993,8.4964 0.0664,3.1767 4.5595,6.63 6.91,8.0124 -1.5117,2.187 -2.234,4.8579 -2.2688,5.9704 -0.3769,4.7098 3.3558,9.2188 4.4024,11.0826 4.4145,6.545 6.9126,11.742 7.8833,13.5768 0.154,0.3553 0.3895,0.6411 0.1635,1.1251 -0.0596,0.1253 -3.8145,6.6959 2.3884,16.1224 2.5227,4.8486 6.146,15.6669 6.1803,15.7269 1.4423,1.5364 -1.9572,0.5874 -2.3031,4.132 -2.4354,0.9517 -20.8668,15.06 -25.0147,18.7901 -1.656,0.4804 -3.7992,0.4113 -4.4904,2.4855 -0.1066,0.1603 -0.7476,1.9951 -1.1468,2.4385 -1.7754,2.042 -3.8464,5.6748 -4.2295,9.2347 -0.4048,1.8226 0.0507,5.3698 2.1744,6.3125 0.9647,0.4276 1.3671,0.123 1.6218,0 0.2793,-0.1381 1.4735,-3.3811 1.6274,-3.755 1.4706,-3.5662 3.6195,-4.5215 8.5909,-9.4608 2.4852,0.685 3.5755,2.1554 6.13,2.7775 6.9094,-6.4165 13.8664,-12.2983 20.6598,-18.8845 -1.0402,10.1962 -2.0077,20.6662 -1.9797,23.4689 -0.4398,1.7878 -0.4929,4.8517 0.7702,6.3633 0,0 11.2899,0.6596 13.4642,0.4993 1.084,-0.0817 1.1468,-0.7228 1.1468,-0.7228 0,0 1.0086,-1.5206 -1.7315,-3.5536 -0.7919,-0.5873 -2.6958,-2.9504 -4.1725,-3.9185 1.9481,-0.4365 4.0001,-0.7729 4.4493,-0.7729 -0.5189,-5.3604 -0.6347,-16.9397 -1.0214,-32.0878 -1.6781,-15.6954 -1.8228,-20.9772 -9.6401,-53.1312 5.5334,-6.2872 5.3195,-10.1962 10.6393,-16.6882 2.8624,-5.5771 7.2805,-16.9107 9.1818,-22.9225l-0.0006 0z"/>
   <g>
    <path class="fil1" d="M37.0749 154.5993l0 -3.6479 3.4434 0.0031c0.9775,0 1.6878,0.7418 1.6878,1.7632 0,1.1498 -0.8832,1.8758 -1.6657,1.8758l-3.4655 0.0058zm0.5588 12.2324l0 0c-0.5935,0 -0.6062,-0.5404 -0.6062,-0.5404l-0.0032 -3.3621 2.2054 0.0037c0.6822,0 1.0243,0.097 1.0243,0.8674 0.0065,0.2041 0.0159,1.6086 0.0159,1.6086 0,0.4303 -0.0317,0.9769 -0.0094,1.4236l-2.6268 -0.0006zm4.123 -68.8451l0 0c0,5.2754 -1.1599,7.9527 -3.4407,7.9527 -1.1157,0 -3.444,0 -3.444,-7.9527 0,-7.9497 2.4165,-7.9497 3.444,-7.9497 1.4515,0 3.4407,0 3.4407,7.9497zm-4.1667 23.1483l0 0 5.1311 -0.0095c0,0 0.4339,0.0254 0.4339,0.4149 0,0.3896 -0.0037,11.5882 -0.0037,13.3323 0,0.9491 -0.8293,1.7251 -2.9224,1.7251 -2.0959,0 -3.1578,-0.773 -3.1578,-1.722l0 -13.3258c0,-0.346 0.5183,-0.415 0.5183,-0.415l0.0006 0zm16.1724 45.7627l0 0c-0.2324,0.0037 -1.1561,-0.0913 -1.1371,-1.1156l0.0058 -1.0682c0,-1.6497 -0.1191,-3.3717 -0.9237,-4.9113 -0.1793,-0.3769 -0.4054,-0.6976 -0.6474,-1.0054 0.0848,-0.0596 0.1855,-0.1071 0.2672,-0.1698l0.0439 -0.0343 0.0441 -0.038c1.7968,-1.5396 2.7115,-3.598 2.7115,-6.1176 0,-1.7124 -0.4308,-3.4914 -1.2068,-5.0057l-0.0342 -0.0658 -0.038 -0.0633c-1.1221,-1.8727 -2.7496,-3.1169 -4.9144,-3.7734 2.9502,-1.744 4.4493,-4.7071 4.4493,-8.8861l0 -13.5083 3.5319 0 -0.0538 -8.8391 -8.2886 0c4.8073,-2.6863 7.5758,-7.6728 7.5758,-14.3091 0,-7.287 -3.1327,-11.7674 -7.406,-14.1997l3.2019 0 0 -8.2232 -6.2221 0 0 -14.7115c1.3892,0.0658 2.3411,1.4798 2.429,3.6732l0.1072 2.7211 8.5719 0.0285 0 -15.3124 -34.8126 0 0 15.3124 8.5814 -0.0285 0.1039 -2.7243c0.0881,-2.1902 1.0402,-3.6042 2.4259,-3.67l0 14.7115 -6.2246 0 0 8.2232 2.6674 0c-4.2733,2.4323 -7.4062,6.9127 -7.4062,14.1997 0,6.6363 2.7685,11.6229 7.576,14.3091l-7.5128 0 0 8.8297 3.5442 0 0 14.3663c0,2.7116 1.2474,5.527 4.308,7.4561l-7.9561 -0.0121 -0.0254 8.7068c0,0 2.6305,0.0285 3.3812,0.0158 0,0.0944 0.5938,0.0095 0.5152,0.6191 -0.0121,2.4411 -0.0153,11.1985 -0.0121,13.9196 0,0.7323 -0.522,0.5125 -0.522,0.6474 -0.7128,-0.0127 -3.3463,0.0095 -3.3463,0.0095l0.0061 8.625 21.1249 0c0,0 0.0032,-2.5106 0.0032,-2.5354 1.6312,1.8069 3.9906,2.7243 7.0513,2.7243l7.2616 0 0 -8.7448 -2.7997 -0.0254z"/>
   </g>
   <path class="fil2" d="M52.9864 54.2667l-29.668 0 0 10.6985 4.066 -0.0121 0.0188 -0.5188c0.163,-4.0814 2.5355,-5.9079 4.8201,-5.9079 1.4864,0 2.2087,0.3023 2.2087,0.9276l0 16.5342c0,0.8894 -0.581,1.879 -1.4136,1.879l-4.8112 0 0 3.62 20.4369 0 0 -3.62 -4.8105 0c-0.8325,0 -1.4141,-0.9896 -1.4141,-1.879l0 -16.5342c0,-0.6252 0.7229,-0.9276 2.2092,-0.9276 2.2809,0 4.6597,1.8265 4.8233,5.9079l0.0189 0.5188 4.0561 0.0121 0 -10.6985 -0.5405 0z"/>
   <path class="fil2" d="M53.5744 114.5962l-12.1887 0 0 4.2264 2.275 0c0.7699,0 1.2697,0.1286 1.5275,0.3928 0.2731,0.2794 0.2858,0.7007 0.2731,1.3603 0,0.0036 -0.0059,0.3585 -0.0059,0.3585 0,0.0058 -0.0037,14.6799 -0.0037,14.6799 -0.0942,0.7102 -0.7603,3.2526 -5.2221,3.2526 -3.4186,0 -5.458,-1.3107 -5.458,-3.5035l0 -14.6868c0,-1.6998 0.7918,-1.8412 1.5362,-1.8412l2.7243 0 0 -4.239 -15.5002 0 0 4.2264 1.7473 0c0.7729,0 1.2723,0.1286 1.5301,0.3928 0.295,0.3015 0.2825,0.8134 0.2704,1.3539 0,0.0064 -0.0037,0.3649 -0.0037,0.3649l0 14.5576c0,3.67 3.2678,7.5947 12.4459,7.5947 9.3607,0 10.5614,-4.5158 10.5614,-8.4432l0 -13.967c0,-1.6998 0.7918,-1.8412 1.5332,-1.8412l1.9827 0 -0.0246 -4.239z"/>
   <path class="fil2" d="M38.3161 108.2394c-2.4638,0 -5.7412,-0.8668 -5.7412,-10.2526 0,-7.0417 1.8759,-10.25 5.7412,-10.25 4.0783,0 5.7406,2.8155 5.7406,10.25 0,6.8498 -1.9861,10.2526 -5.7406,10.2526zm-0.1571 -24.496l0 0c-7.1014,0 -14.69,3.582 -14.69,14.2433 0,9.0526 5.4896,14.2432 14.69,14.2432 9.1971,0 14.6861,-5.1906 14.6861,-14.2432 0,-10.6613 -7.5879,-14.2433 -14.6861,-14.2433z"/>
   <path class="fil2" d="M34.7747 148.6764c0.8483,0 3.7891,0.0157 5.9039,0.0157 1.9234,0 3.2805,0.8453 3.6798,2.3125 0.2387,0.9111 0.2609,2.3601 -0.1572,3.4972 -0.5658,1.5427 -1.7974,2.3315 -3.5409,2.3315 -0.0036,0 -4.6002,0 -5.8855,0.0037l0 -8.1606zm19.0728 20.4021l0 0c-1.0334,0.0094 -3.3933,-0.0724 -3.3933,-3.2963l0.0059 -1.0842c0,-1.2659 -0.0534,-2.7146 -0.6818,-3.8804 -0.5875,-1.2632 -2.0547,-1.995 -2.8594,-2.3599 1.0276,-0.3264 2.1967,-0.9269 3.1299,-1.6492 1.2347,-1.0624 1.9037,-2.4702 1.9037,-4.3708 0,-1.3545 -0.3358,-2.759 -0.9491,-3.9532 -1.3195,-2.1991 -3.5568,-3.2114 -7.0602,-3.2114 -0.0096,0 -20.3957,-0.0343 -20.3957,-0.0343l-0.0094 4.1447c0,0 1.4831,-0.0159 2.6424,-0.0159 1.1595,0 1.2817,1.1405 1.2817,1.1405 0,0 0.0318,12.9273 0.0381,17.1189 0,0.6754 -0.6317,1.4013 -1.2508,1.4013l-2.7147 0 0.0128 4.1479 16.8826 0 -0.0127 -4.1447 -4.1913 0c-0.6033,0 -1.3166,-0.8109 -1.3166,-1.499 0,0 -0.0063,-5.1627 -0.0095,-6.8529 0.2072,0 5.0089,0 5.0089,0 0.5561,0 2.7241,0.2763 2.6741,2.8593l-0.0442 1.7783c0.0285,1.5743 -0.1382,2.8281 0.5498,4.588 1.1347,2.341 3.1988,3.4592 6.3412,3.4592l4.9613 0 0 -4.2921 -0.5436 0.0064z"/>
  </g>
 </g>
</svg>
